<svg width="16" height="16" viewBox="0 0 16 16" fill="none" xmlns="http://www.w3.org/2000/svg">
<path d="M7.97096 5.04647C6.56828 5.04647 5.42358 6.18105 5.42358 7.57132C5.42358 8.9616 6.56828 10.0962 7.97096 10.0962C9.37364 10.0962 10.5183 8.9616 10.5183 7.57132C10.5183 6.18105 9.37364 5.04647 7.97096 5.04647ZM15.6112 7.57132C15.6112 6.52577 15.6207 5.4897 15.5615 4.44604C15.5023 3.23381 15.2233 2.15795 14.3289 1.27151C13.4326 0.383174 12.3491 0.108528 11.126 0.0498102C10.0712 -0.00890719 9.02584 0.000563392 7.97287 0.000563392C6.91799 0.000563392 5.87267 -0.00890719 4.8197 0.0498102C3.59665 0.108528 2.5112 0.385068 1.61684 1.27151C0.720577 2.15985 0.443481 3.23381 0.384239 4.44604C0.324998 5.49159 0.334553 6.52767 0.334553 7.57132C0.334553 8.61498 0.324998 9.65295 0.384239 10.6966C0.443481 11.9088 0.722489 12.9847 1.61684 13.8711C2.51311 14.7595 3.59665 15.0341 4.8197 15.0928C5.87458 15.1516 6.9199 15.1421 7.97287 15.1421C9.02775 15.1421 10.0731 15.1516 11.126 15.0928C12.3491 15.0341 13.4345 14.7576 14.3289 13.8711C15.2252 12.9828 15.5023 11.9088 15.5615 10.6966C15.6227 9.65295 15.6112 8.61687 15.6112 7.57132ZM7.97096 11.4561C5.80196 11.4561 4.05147 9.72114 4.05147 7.57132C4.05147 5.42151 5.80196 3.6865 7.97096 3.6865C10.14 3.6865 11.8904 5.42151 11.8904 7.57132C11.8904 9.72114 10.14 11.4561 7.97096 11.4561ZM12.051 4.43468C11.5446 4.43468 11.1356 4.02934 11.1356 3.5274C11.1356 3.02546 11.5446 2.62012 12.051 2.62012C12.5574 2.62012 12.9664 3.02546 12.9664 3.5274C12.9665 3.64658 12.9429 3.76463 12.897 3.87477C12.851 3.98492 12.7836 4.085 12.6986 4.16927C12.6135 4.25355 12.5126 4.32038 12.4015 4.36592C12.2903 4.41146 12.1712 4.43483 12.051 4.43468Z" fill="#AAAAAA"/>
</svg>
