<svg width="16" height="16" viewBox="0 0 16 16" fill="none" xmlns="http://www.w3.org/2000/svg">
<path d="M15.3327 0H1.27713C0.939106 0 0.666016 0.270675 0.666016 0.605706V14.5369C0.666016 14.872 0.939106 15.1426 1.27713 15.1426H15.3327C15.6707 15.1426 15.9438 14.872 15.9438 14.5369V0.605706C15.9438 0.270675 15.6707 0 15.3327 0ZM12.4165 5.48353C12.4223 5.57249 12.4223 5.66524 12.4223 5.7561C12.4223 8.53477 10.2872 11.7355 6.38563 11.7355C5.18251 11.7355 4.06723 11.3892 3.12765 10.7929C3.29952 10.8118 3.46376 10.8194 3.63945 10.8194C4.63251 10.8194 5.54536 10.4863 6.27296 9.92222C5.34102 9.90329 4.55803 9.29758 4.29067 8.46474C4.61723 8.51206 4.91133 8.51206 5.24744 8.42688C4.76758 8.33025 4.33626 8.07194 4.02678 7.69584C3.71729 7.31973 3.54872 6.84903 3.5497 6.3637V6.3372C3.83043 6.4943 4.16081 6.59084 4.50647 6.60409C4.21589 6.41214 3.97758 6.1521 3.81269 5.84701C3.64779 5.54192 3.56139 5.20122 3.56115 4.85511C3.56115 4.46329 3.66428 4.10555 3.84952 3.79513C4.38215 4.445 5.04679 4.97652 5.80024 5.35513C6.55369 5.73374 7.37909 5.95097 8.22279 5.9927C7.92296 4.56361 9.00004 3.4071 10.2948 3.4071C10.9059 3.4071 11.4559 3.66073 11.8436 4.06959C12.323 3.98062 12.7813 3.8027 13.19 3.5642C13.0315 4.05066 12.6992 4.4614 12.258 4.72072C12.6858 4.67529 13.0983 4.55794 13.4803 4.39326C13.1919 4.81347 12.8309 5.18636 12.4165 5.48353Z" fill="#AAAAAA"/>
</svg>
